<?xml version="1.0" encoding="UTF-8" standalone="no"?>
<svg
   viewBox="0 0 123.89465 141.51056"
   width="241.99158"
   height="276.39905"
   version="1.1"
   id="svg4"
   sodipodi:docname="icon.svg"
   inkscape:export-filename="icon.png"
   inkscape:export-xdpi="198.354"
   inkscape:export-ydpi="198.354"
   inkscape:version="1.3 (0e150ed6c4, 2023-07-21)"
   xml:space="preserve"
   xmlns:inkscape="http://www.inkscape.org/namespaces/inkscape"
   xmlns:sodipodi="http://sodipodi.sourceforge.net/DTD/sodipodi-0.dtd"
   xmlns="http://www.w3.org/2000/svg"
   xmlns:svg="http://www.w3.org/2000/svg"><sodipodi:namedview
     id="namedview4"
     pagecolor="#505050"
     bordercolor="#eeeeee"
     borderopacity="1"
     inkscape:showpageshadow="0"
     inkscape:pageopacity="0"
     inkscape:pagecheckerboard="0"
     inkscape:deskcolor="#505050"
     inkscape:zoom="1.6"
     inkscape:cx="-1.875"
     inkscape:cy="170.625"
     inkscape:window-width="1920"
     inkscape:window-height="1009"
     inkscape:window-x="-8"
     inkscape:window-y="-8"
     inkscape:window-maximized="1"
     inkscape:current-layer="svg4" /><defs
     id="defs1"><clipPath
       id="clip-1"><path
         d="M 4.92288,251.0667 V 4.92287 H 251.06671 V 251.0667 Z m 188.38893,-61.53134 c -13.68903,-11.9227 -26.93648,-23.84541 -33.5602,-30.46913 3.09107,-11.03954 0,-22.52066 -8.39005,-30.91071 l -1.32474,-1.32474 c -9.27321,-9.7148 -26.05331,-9.7148 -33.11862,-9.7148 -5.29898,0 -10.15638,3.09107 -12.36428,7.94847 -1.32474,3.97423 -1.32474,7.94847 0.88316,11.48112 -2.20791,-1.32474 -3.97423,-1.76633 -6.18214,-1.76633 -1.76633,0 -3.53265,0.44158 -5.29898,0.88316 -4.8574,2.20791 -7.94847,6.62372 -7.94847,11.9227 0,11.03954 0.88316,24.72857 9.7148,33.5602 l 1.32474,1.32474 c 6.18214,6.18214 14.13061,9.27321 22.52066,9.27321 2.64949,0 5.29898,-0.44158 8.39005,-1.32474 l 30.46913,33.5602 c 4.41582,4.41582 11.03954,7.06531 17.66326,7.06531 6.62372,0 12.36428,-2.64949 17.22168,-7.06531 5.74056,-5.74056 8.39005,-13.24745 7.06531,-20.75433 -0.88316,-4.8574 -3.53265,-10.15638 -7.06531,-13.68903 z"
         id="overlayBgMask"
         fill="none" /></clipPath></defs><text
     xml:space="preserve"
     style="font-style:normal;font-variant:normal;font-weight:bold;font-stretch:normal;font-size:238.923px;font-family:'Courier New';-inkscape-font-specification:'Courier New, Bold';font-variant-ligatures:normal;font-variant-caps:normal;font-variant-numeric:normal;font-variant-east-asian:normal;fill:#000000;stroke:none;stroke-width:2.6781"
     x="-9.5662527"
     y="141.51054"
     id="text4"><tspan
       sodipodi:role="line"
       id="tspan4"
       style="font-style:normal;font-variant:normal;font-weight:bold;font-stretch:normal;font-size:238.923px;font-family:'Courier New';-inkscape-font-specification:'Courier New, Bold';font-variant-ligatures:normal;font-variant-caps:normal;font-variant-numeric:normal;font-variant-east-asian:normal;stroke:none;stroke-width:2.67809"
       x="-9.5662527"
       y="141.51054">T</tspan></text><path
     d="m 101.23818,78.040364 v -14.40655 l -8.840447,-1.47341 c -0.654756,-2.45568 -1.637029,-4.74774 -2.783197,-6.71228 l 5.238876,-7.20313 -10.150235,-10.31385 -7.367034,5.07497 c -2.128162,-1.14589 -4.42022,-2.12816 -6.711998,-2.78319 l -1.473406,-8.67655 H 54.743906 l -1.473407,8.84045 c -2.455679,0.65475 -4.583841,1.63702 -6.712003,2.78291 l -7.203418,-5.07497 -10.313845,10.15023 5.23887,7.20313 c -1.145889,2.12844 -2.128161,4.42022 -2.783196,6.8759 l -8.840437,1.30979 v 14.40655 l 8.840437,1.47341 c 0.654755,2.45567 1.637028,4.58412 2.783196,6.71228 l -5.23887,7.36703 10.150229,10.150236 7.367034,-5.23888 c 2.128162,1.14589 4.420219,2.12816 6.875899,2.7832 l 1.473406,8.67654 h 14.406554 l 1.473406,-8.84044 c 2.292058,-0.65476 4.583842,-1.63703 6.712283,-2.78292 l 7.367034,5.23859 10.14995,-10.149946 -5.238591,-7.36703 c 1.145889,-2.12844 2.128156,-4.2566 2.782912,-6.71228 z m -39.290858,7.85817 c -8.349311,0 -15.061588,-6.712 -15.061588,-15.0613 0,-8.34931 6.875899,-15.06159 15.061588,-15.06159 8.185684,0 15.061583,6.71228 15.061583,15.06159 0,8.3493 -6.712277,15.0613 -15.061583,15.0613 z"
     id="path1-5"
     style="fill:#ff9b00;fill-opacity:1;stroke-width:0.280649;stroke:none;stroke-opacity:1" /></svg>
